<svg width="256" height="256" viewBox="0 0 256 256" fill="none" xmlns="http://www.w3.org/2000/svg">
<path d="M128 147.474C137.92 147.474 147.434 143.533 154.448 136.519C161.462 129.505 165.403 119.991 165.403 110.071C165.403 100.151 161.462 90.6379 154.448 83.6235C147.434 76.6092 137.92 72.6685 128 72.6685C118.08 72.6685 108.567 76.6092 101.553 83.6235C94.5382 90.6379 90.5975 100.151 90.5975 110.071C90.5975 119.991 94.5382 129.505 101.553 136.519C108.567 143.533 118.08 147.474 128 147.474ZM128 147.474C143.595 147.475 158.653 153.17 170.345 163.49C182.038 173.809 189.56 188.043 191.499 203.517C173.741 218.507 151.239 226.71 128 226.663C104.761 226.71 82.2594 218.507 64.5015 203.517M128 147.474C112.405 147.475 97.3474 153.17 85.655 163.49C73.9627 173.809 66.4405 188.043 64.5015 203.517M64.5015 203.517C49.0116 190.49 37.9023 173.015 32.68 153.462C27.4577 133.908 28.375 113.221 35.3076 94.2061C42.2402 75.1913 54.8526 58.7684 71.4347 47.1642C88.0168 35.56 107.766 29.3359 128.006 29.3359C148.245 29.3359 167.994 35.56 184.576 47.1642C201.159 58.7684 213.771 75.1913 220.703 94.2061C227.636 113.221 228.553 133.908 223.331 153.462C218.109 173.015 206.999 190.49 191.51 203.517" stroke="black" stroke-width="16" stroke-linecap="round" stroke-linejoin="round"/>
</svg>
