<svg width="256" height="256" viewBox="0 0 256 256" fill="none" xmlns="http://www.w3.org/2000/svg">
<path d="M86.8266 167.822C109.845 190.84 132.459 202.808 149.653 209.038C168.512 215.864 188.117 207.79 202.293 193.614L207.189 188.728C208.676 187.243 209.856 185.478 210.66 183.536C211.465 181.595 211.879 179.513 211.879 177.411C211.879 175.309 211.465 173.228 210.66 171.286C209.856 169.344 208.676 167.58 207.189 166.094L194.933 153.838C191.933 150.838 187.864 149.153 183.621 149.153C179.379 149.153 175.31 150.838 172.309 153.838L168.181 157.966C164.181 161.965 158.755 164.212 153.099 164.212C147.442 164.212 142.017 161.965 138.016 157.966L98.4106 118.371C96.4287 116.39 94.8565 114.038 93.7839 111.449C92.7112 108.86 92.1591 106.085 92.1591 103.283C92.1591 100.481 92.7112 97.706 93.7839 95.1172C94.8565 92.5283 96.4287 90.1762 98.4106 88.1951L102.539 84.0671C105.535 81.0671 107.218 77.0004 107.218 72.7604C107.218 68.5204 105.535 64.4537 102.539 61.4537L90.2719 49.1871C87.2719 46.1908 83.2053 44.5078 78.9653 44.5078C74.7252 44.5078 70.6586 46.1908 67.6586 49.1871L61.5573 55.2884C48.0959 68.7497 40.0853 87.1817 46.2186 105.208C51.9573 122.062 63.5199 144.515 86.8159 167.822H86.8266Z" stroke="black" stroke-width="16"/>
</svg>
