<svg width="256" height="256" viewBox="0 0 256 256" fill="none" xmlns="http://www.w3.org/2000/svg">
<path d="M28.2883 156.951V104.322M195.542 126.391L152.352 154.85C145.383 159.442 137.221 161.89 128.875 161.89C120.529 161.89 112.366 159.442 105.398 154.85L62.2083 126.402V180.396C62.2083 185.676 63.4776 190.924 66.9016 194.946C74.8696 204.3 93.7176 220.439 128.875 220.439C164.032 220.439 182.88 204.3 190.848 194.946C194.262 190.924 195.542 185.676 195.542 180.396V126.402L221.995 108.972C223.764 107.806 225.216 106.22 226.221 104.354C227.226 102.489 227.752 100.403 227.752 98.2844C227.752 96.1656 227.226 94.0799 226.221 92.2145C225.216 90.3491 223.764 88.7622 221.995 87.5964L152.342 41.7084C145.374 37.1183 137.213 34.6719 128.87 34.6719C120.526 34.6719 112.365 37.1183 105.398 41.7084L33.0563 89.3777C31.5438 90.3612 30.3085 91.7158 29.4682 93.3124C28.6279 94.9089 28.2107 96.7048 28.2563 98.5084M62.2083 126.391L33.0563 107.202C31.6048 106.257 30.4077 104.97 29.5707 103.454C28.7336 101.938 28.2823 100.24 28.2563 98.5084M28.2563 98.5084V104.332" stroke="black" stroke-width="16" stroke-linecap="round" stroke-linejoin="round"/>
</svg>
