<svg width="256" height="256" viewBox="0 0 256 256" fill="none" xmlns="http://www.w3.org/2000/svg">
<path d="M196.374 97.7044C196.379 108.004 194.054 118.171 189.572 127.444C185.091 136.717 178.569 144.856 170.496 151.251C158.423 160.87 143.437 166.098 128 166.078C111.936 166.078 97.1736 160.531 85.5043 151.272C76.436 144.078 69.3427 134.698 64.8893 124.014C60.436 113.329 58.7682 101.688 60.0425 90.1828C61.3167 78.6774 65.4912 67.6839 72.1747 58.2325C78.8582 48.7811 87.8319 41.1813 98.2549 36.1453C108.678 31.1094 120.209 28.8021 131.767 29.4398C143.325 30.0774 154.532 33.6392 164.338 39.7912C174.143 45.9432 182.227 54.484 187.83 64.6133C193.433 74.7426 196.373 86.1286 196.374 97.7044Z" stroke="black" stroke-width="16" stroke-linecap="round" stroke-linejoin="round"/>
<path d="M170.496 151.25V226.663L128 194.845L85.5039 226.663V151.25" stroke="black" stroke-width="16" stroke-linecap="round" stroke-linejoin="round"/>
</svg>
