<svg width="96" height="96" viewBox="0 0 96 96" fill="none" xmlns="http://www.w3.org/2000/svg">
<g opacity="0.15">
<path d="M24 20C25.0609 20 26.0783 20.4214 26.8284 21.1716C27.5786 21.9217 28 22.9391 28 24C28 25.0609 27.5786 26.0783 26.8284 26.8284C26.0783 27.5786 25.0609 28 24 28C22.9391 28 21.9217 27.5786 21.1716 26.8284C20.4214 26.0783 20 25.0609 20 24C20 22.9391 20.4214 21.9217 21.1716 21.1716C21.9217 20.4214 22.9391 20 24 20ZM24 68C25.0609 68 26.0783 68.4214 26.8284 69.1716C27.5786 69.9217 28 70.9391 28 72C28 73.0609 27.5786 74.0783 26.8284 74.8284C26.0783 75.5786 25.0609 76 24 76C22.9391 76 21.9217 75.5786 21.1716 74.8284C20.4214 74.0783 20 73.0609 20 72C20 70.9391 20.4214 69.9217 21.1716 69.1716C21.9217 68.4214 22.9391 68 24 68ZM72 68C73.0609 68 74.0783 68.4214 74.8284 69.1716C75.5786 69.9217 76 70.9391 76 72C76 73.0609 75.5786 74.0783 74.8284 74.8284C74.0783 75.5786 73.0609 76 72 76C70.9391 76 69.9217 75.5786 69.1716 74.8284C68.4214 74.0783 68 73.0609 68 72C68 70.9391 68.4214 69.9217 69.1716 69.1716C69.9217 68.4214 70.9391 68 72 68ZM72 20C73.0609 20 74.0783 20.4214 74.8284 21.1716C75.5786 21.9217 76 22.9391 76 24C76 25.0609 75.5786 26.0783 74.8284 26.8284C74.0783 27.5786 73.0609 28 72 28C70.9391 28 69.9217 27.5786 69.1716 26.8284C68.4214 26.0783 68 25.0609 68 24C68 22.9391 68.4214 21.9217 69.1716 21.1716C69.9217 20.4214 70.9391 20 72 20Z" fill="black"/>
</g>
</svg>
