<svg width="256" height="256" viewBox="0 0 256 256" fill="none" xmlns="http://www.w3.org/2000/svg">
<path d="M90.6663 117.336V149.336M165.333 117.336V149.336M29.333 133.336H226.666M29.333 106.669C29.333 98.1823 32.7044 90.043 38.7056 84.0419C44.7068 78.0407 52.8461 74.6693 61.333 74.6693H194.666C203.153 74.6693 211.293 78.0407 217.294 84.0419C223.295 90.043 226.666 98.1823 226.666 106.669V186.669C226.666 195.156 223.295 203.296 217.294 209.297C211.293 215.298 203.153 218.669 194.666 218.669H61.333C52.8461 218.669 44.7068 215.298 38.7056 209.297C32.7044 203.296 29.333 195.156 29.333 186.669V106.669ZM85.333 58.6693C85.333 53.0113 87.5806 47.5851 91.5814 43.5843C95.5822 39.5835 101.008 37.3359 106.666 37.3359H149.333C154.991 37.3359 160.417 39.5835 164.418 43.5843C168.419 47.5851 170.666 53.0113 170.666 58.6693V74.6693H85.333V58.6693Z" stroke="black" stroke-width="16" stroke-linecap="round" stroke-linejoin="round"/>
</svg>
