<svg width="256" height="256" viewBox="0 0 256 256" fill="none" xmlns="http://www.w3.org/2000/svg">
<path d="M114.038 48.6597C122.996 39.7045 134.341 33.515 146.719 30.8293C159.098 28.1437 171.987 29.0753 183.851 33.5131C187.883 35.0171 188.651 40.1264 185.611 43.1771L155.883 72.9051C154.855 73.9323 154.04 75.152 153.483 76.4945C152.927 77.8369 152.641 79.2759 152.641 80.7291C152.641 82.1822 152.927 83.6212 153.483 84.9637C154.04 86.3061 154.855 87.5258 155.883 88.5531L167.446 100.116C168.473 101.144 169.693 101.959 171.035 102.515C172.378 103.072 173.817 103.358 175.27 103.358C176.723 103.358 178.162 103.072 179.504 102.515C180.847 101.959 182.067 101.144 183.094 100.116L212.832 70.3984C215.872 67.3584 220.982 68.1371 222.486 72.1584C226.84 83.7797 227.829 96.3933 225.339 108.551C222.85 120.709 216.983 131.919 208.411 140.894C199.84 149.868 188.911 156.244 176.881 159.289C164.85 162.335 152.204 161.926 140.395 158.11C136.171 156.745 131.435 157.534 128.299 160.67L69.1311 219.838C66.9922 222.113 64.4182 223.936 61.5617 225.197C58.7052 226.459 55.6244 227.133 52.5022 227.182C49.3799 227.23 46.2798 226.65 43.3858 225.478C40.4917 224.305 37.8627 222.563 35.6547 220.355C33.4467 218.147 31.7046 215.518 30.5319 212.624C29.3593 209.73 28.7798 206.63 28.828 203.507C28.8761 200.385 29.5509 197.304 30.8123 194.448C32.0737 191.591 33.896 189.017 36.1711 186.878L95.3391 127.7C98.4751 124.564 99.2644 119.828 97.8991 115.604C94.1694 104.041 93.7027 91.6726 96.5501 79.8612C99.3976 68.0498 105.449 57.2531 114.038 48.6597Z" stroke="black" stroke-width="16" stroke-linejoin="round"/>
</svg>
